<?xml version="1.0" encoding="UTF-8" standalone="no" ?>
<!DOCTYPE svg PUBLIC "-//W3C//DTD SVG 1.1//EN" "http://www.w3.org/Graphics/SVG/1.1/DTD/svg11.dtd">
<svg xmlns="http://www.w3.org/2000/svg" xmlns:xlink="http://www.w3.org/1999/xlink" version="1.1" width="1280" height="1024" viewBox="0 0 1280 1024" xml:space="preserve">
<desc>Created with Fabric.js 5.3.0</desc>
<defs>
</defs>
<g transform="matrix(1 0 0 1 640 512)" id="background-logo"  >
<rect style="stroke: none; stroke-width: 0; stroke-dasharray: none; stroke-linecap: butt; stroke-dashoffset: 0; stroke-linejoin: miter; stroke-miterlimit: 4; fill: rgb(255,255,255); fill-opacity: 0; fill-rule: nonzero; opacity: 1;"  paint-order="stroke"  x="-640" y="-512" rx="0" ry="0" width="1280" height="1024" />
</g>
<g transform="matrix(3.6213572070826534 0 0 3.6213572070826534 661.0078710051683 356.74534023122624)" id="shape-8fce9780-6769-4081-8012-b521638e8092"  >
<g style=""  paint-order="stroke"   >
		<g transform="matrix(1 0 0 1 -1.421085e-14 7.10543e-15)" id="decoration-34"  >
<path style="stroke: none; stroke-width: 1; stroke-dasharray: none; stroke-linecap: butt; stroke-dashoffset: 0; stroke-linejoin: miter; stroke-miterlimit: 4; fill: rgb(255,255,255); fill-rule: nonzero; opacity: 1;"  paint-order="stroke"  transform=" translate(-100.28956764150402, -54.503119218080656)" d="M 174.45 109 L 27.1 109 L 27.1 109 C 12.907864500152542 108.48816434182842 1.324822953464281 97.47478471601683 0.09851679637455746 83.32646824386755 C -1.1277893607151661 69.17815177171829 8.387578353613343 56.336066290159515 22.279999999999987 53.39 C 22.28 52.81 22.220000000000002 52.25 22.220000000000002 51.68 C 22.23005606854872 42.77098043442816 26.461279906268654 34.39375233808021 33.62570544877873 29.09830737187711 C 40.790130991288805 23.802862405674006 50.040113989329 22.215720232112297 58.56 24.819999999999997 C 63.06341485084156 10.00520608171049 76.76611162641993 -0.0898053154357008 92.24999999999997 -3.552713678800501e-15 C 109.61800443651686 0.09645009110110343 124.36460587858308 12.748484039961362 127.1 29.900000000000002 C 134.52826319530578 29.835426658346243 141.53035899221263 33.36254619008603 145.89999999999998 39.369999999999976 C 148.2100228519094 38.590876508670775 150.6321279852065 38.19563759570598 153.07 38.2 C 164.40249347136023 38.26168462829709 173.95178837997366 46.67548000821532 175.44 57.90999999999998 L 175.62 57.91 C 189.72811393442763 58.233086578651005 200.90308657865103 69.93188606557237 200.58 84.03999999999999 C 200.256913421349 98.14811393442761 188.55811393442764 109.32308657865102 174.45000000000002 109 Z M 170.75 104 L 173.32 104.11 C 173.7 104.11 174.07 104.11 174.45 104.11 C 185.6913362154303 103.86275846355802 194.67527480826334 94.67905479734459 194.67527480826334 83.435 C 194.67527480826334 72.19094520265541 185.6913362154303 63.00724153644197 174.45 62.76 C 174.07 62.76 173.7 62.76 173.32 62.76 L 170.75 62.89 L 170.75 60.4 C 170.62922186651477 54.49150010568392 167.5643172837787 49.03404628392031 162.58197952337747 45.85579695450306 C 157.59964176297623 42.67754762508582 151.35878690627416 42.19882748185303 145.95 44.58 L 143.95 45.449999999999996 L 142.83999999999997 43.599999999999994 C 139.56008957409333 38.14212678957352 133.66754429461008 34.79391734183625 127.29999999999997 34.769999999999996 C 126.60131267270522 34.76998612038824 125.90330005845925 34.813403172948995 125.20999999999998 34.9 L 122.70999999999998 35.18 L 122.49999999999999 32.68 C 121.08345845770751 17.004482694125066 107.98912985865579 4.970686494004809 92.25 4.880000000000003 C 78.0293265179259 4.8073237702657 65.68472192442883 14.665515090376214 62.61 28.550000000000004 L 62 31.39 L 59.31 30.26 C 52.141169783547454 27.24969725099121 43.94144163536531 28.027233795787502 37.46619705248562 32.33133148344518 C 30.99095246960593 36.63542917110287 27.099688756730266 43.89477979629253 27.1 51.66999999999999 C 27.099399101495738 52.8013073537105 27.182963046906792 53.93109189566802 27.349999999999994 55.050000000000004 L 27.71 57.52 L 25.240000000000002 57.82 C 13.025980349668435 59.304963663835274 4.085941747615575 70.0523867317001 4.849644498695522 82.33262089923898 C 5.613347249775469 94.61285506677788 15.816105924181404 104.16979538456276 28.12000000000001 104.13 C 28.55 104.13 28.98 104.13 29.41 104.13 L 32 104 L 32 104.18 L 170.75 104.18 Z" stroke-linecap="round" />
</g>
</g>
</g>
<g transform="matrix(1.9211538461538462 0 0 1.9211538461538462 639.3988831040106 629.5082466904485)" id="text-logo"  >
<g style=""  paint-order="stroke"   >
		<g transform="matrix(1 0 0 1 0 0)" id="text-logo-path-0"  >
<path style="stroke: rgb(255,255,255); stroke-width: 0; stroke-dasharray: none; stroke-linecap: butt; stroke-dashoffset: 0; stroke-linejoin: miter; stroke-miterlimit: 4; fill: rgb(22,136,243); fill-rule: nonzero; opacity: 1;"  paint-order="stroke"  transform=" translate(-97.59499999999998, 20.919999999999998)" d="M 23.67 -20.92 L 23.67 -20.92 Q 23.67 -17.36 23.96 -14.76 Q 24.25 -12.17 24.73 -10.36 Q 25.21 -8.55 25.86 -7.43 Q 26.51 -6.32 27.21 -5.69 Q 27.9 -5.07 28.61 -4.85 Q 29.32 -4.64 29.96 -4.64 L 29.96 -4.64 Q 30.68 -4.64 31.26 -4.82 Q 31.84 -5.01 32.31 -5.26 Q 32.77 -5.51 33.07 -5.69 Q 33.38 -5.88 33.55 -5.88 L 33.55 -5.88 Q 33.78 -5.88 33.96 -5.62 L 33.96 -5.62 L 35.2 -3.65 Q 35.29 -3.48 35.29 -3.36 L 35.29 -3.36 Q 35.29 -3.22 35.17 -3.11 Q 35.06 -3.01 34.97 -2.93 L 34.97 -2.93 Q 34.07 -2.23 32.68 -1.51 Q 31.29 -0.78 29.51 -0.2 Q 27.73 0.38 25.58 0.75 Q 23.44 1.13 21.06 1.13 L 21.06 1.13 Q 18.89 1.13 16.62 0.71 Q 14.34 0.29 12.2 -0.71 Q 10.05 -1.71 8.16 -3.36 Q 6.26 -5.01 4.84 -7.46 Q 3.42 -9.91 2.59 -13.23 Q 1.77 -16.54 1.77 -20.92 L 1.77 -20.92 Q 1.77 -25.29 2.59 -28.61 Q 3.42 -31.93 4.84 -34.38 Q 6.26 -36.83 8.16 -38.48 Q 10.05 -40.13 12.2 -41.13 Q 14.34 -42.13 16.62 -42.55 Q 18.89 -42.97 21.06 -42.97 L 21.06 -42.97 Q 23.44 -42.97 25.58 -42.59 Q 27.73 -42.21 29.51 -41.64 Q 31.29 -41.06 32.68 -40.33 Q 34.07 -39.61 34.97 -38.91 L 34.97 -38.91 Q 35.06 -38.82 35.17 -38.72 Q 35.29 -38.62 35.29 -38.48 L 35.29 -38.48 Q 35.29 -38.36 35.2 -38.19 L 35.2 -38.19 L 33.96 -36.22 Q 33.78 -35.96 33.55 -35.96 L 33.55 -35.96 Q 33.38 -35.96 33.07 -36.14 Q 32.77 -36.33 32.31 -36.58 Q 31.84 -36.83 31.26 -37.01 Q 30.68 -37.2 29.96 -37.2 L 29.96 -37.2 Q 29.32 -37.2 28.61 -36.98 Q 27.9 -36.77 27.21 -36.14 Q 26.51 -35.52 25.86 -34.41 Q 25.21 -33.29 24.73 -31.48 Q 24.25 -29.67 23.96 -27.08 Q 23.67 -24.48 23.67 -20.92 Z M 18.77 -20.92 L 18.77 -20.92 Q 18.77 -17.33 19.11 -14.69 Q 19.44 -12.05 20.04 -10.16 Q 20.63 -8.26 21.43 -7.01 Q 22.22 -5.77 23.14 -4.97 Q 24.05 -4.17 25.02 -3.75 Q 25.99 -3.33 26.95 -3.1 L 26.95 -3.1 Q 26.63 -3.3 26.08 -3.67 Q 25.53 -4.03 24.87 -4.77 Q 24.22 -5.51 23.57 -6.74 Q 22.92 -7.97 22.38 -9.88 Q 21.85 -11.79 21.51 -14.5 Q 21.18 -17.21 21.18 -20.92 L 21.18 -20.92 Q 21.18 -24.63 21.51 -27.34 Q 21.85 -30.05 22.38 -31.96 Q 22.92 -33.87 23.57 -35.1 Q 24.22 -36.33 24.87 -37.07 Q 25.53 -37.81 26.08 -38.17 Q 26.63 -38.54 26.95 -38.74 L 26.95 -38.74 Q 25.99 -38.48 25.02 -38.07 Q 24.05 -37.67 23.14 -36.87 Q 22.22 -36.07 21.43 -34.83 Q 20.63 -33.58 20.04 -31.68 Q 19.44 -29.79 19.11 -27.15 Q 18.77 -24.51 18.77 -20.92 Z M 40.01 -4.03 L 40.01 -37.55 Q 40.01 -38.56 40.19 -39.32 Q 40.36 -40.07 40.85 -40.58 Q 41.34 -41.08 42.21 -41.35 Q 43.08 -41.61 44.47 -41.61 L 44.47 -41.61 L 57.4 -41.61 Q 59.08 -41.61 59.96 -41.11 Q 60.84 -40.62 61.21 -39.88 Q 61.57 -39.14 61.6 -38.32 Q 61.63 -37.49 61.63 -36.8 L 61.63 -36.8 L 61.63 -3.97 Q 63.63 -4.26 65.33 -4.49 L 65.33 -4.49 Q 66.06 -4.58 66.8 -4.68 Q 67.54 -4.78 68.16 -4.87 Q 68.78 -4.95 69.28 -5 Q 69.77 -5.04 70 -5.04 L 70 -5.04 Q 70.49 -5.04 70.8 -4.85 Q 71.1 -4.66 71.1 -4.09 L 71.1 -4.09 L 71.1 -1.42 Q 71.1 -0.9 70.65 -0.45 Q 70.2 0 69.22 0 L 69.22 0 L 44.42 0 Q 43.05 0 42.2 -0.26 Q 41.34 -0.52 40.85 -1.01 Q 40.36 -1.51 40.19 -2.26 Q 40.01 -3.01 40.01 -4.03 L 40.01 -4.03 Z M 59.16 -3.65 L 59.16 -37.32 Q 59.16 -37.96 59.08 -38.33 Q 58.99 -38.71 58.73 -38.9 Q 58.47 -39.09 58.03 -39.13 Q 57.6 -39.17 56.9 -39.17 L 56.9 -39.17 L 56.9 -3.3 L 59.16 -3.65 Z M 93.93 1.13 L 93.93 1.13 Q 91.61 1.13 89.28 0.72 Q 86.95 0.32 84.8 -0.67 Q 82.66 -1.65 80.81 -3.29 Q 78.95 -4.93 77.57 -7.37 Q 76.2 -9.82 75.42 -13.17 Q 74.63 -16.52 74.63 -20.95 L 74.63 -20.95 Q 74.63 -25.35 75.42 -28.71 Q 76.2 -32.07 77.57 -34.52 Q 78.95 -36.97 80.81 -38.59 Q 82.66 -40.22 84.8 -41.19 Q 86.95 -42.16 89.28 -42.56 Q 91.61 -42.97 93.93 -42.97 L 93.93 -42.97 Q 96.25 -42.97 98.6 -42.56 Q 100.94 -42.16 103.09 -41.19 Q 105.23 -40.22 107.08 -38.59 Q 108.94 -36.97 110.3 -34.52 Q 111.66 -32.07 112.44 -28.71 Q 113.23 -25.35 113.23 -20.95 L 113.23 -20.95 Q 113.23 -16.54 112.44 -13.18 Q 111.66 -9.82 110.3 -7.37 Q 108.94 -4.93 107.08 -3.29 Q 105.23 -1.65 103.09 -0.67 Q 100.94 0.32 98.6 0.72 Q 96.25 1.13 93.93 1.13 Z M 96.54 -20.95 L 96.54 -20.95 Q 96.54 -17.33 97.07 -14.89 Q 97.61 -12.46 98.51 -10.98 Q 99.41 -9.5 100.52 -8.88 Q 101.64 -8.26 102.83 -8.26 L 102.83 -8.26 Q 104.01 -8.26 105.14 -8.88 Q 106.27 -9.5 107.16 -10.98 Q 108.04 -12.46 108.58 -14.89 Q 109.11 -17.33 109.11 -20.95 L 109.11 -20.95 Q 109.11 -24.57 108.58 -27 Q 108.04 -29.44 107.16 -30.91 Q 106.27 -32.39 105.14 -33.02 Q 104.01 -33.64 102.83 -33.64 L 102.83 -33.64 Q 101.64 -33.64 100.52 -33.02 Q 99.41 -32.39 98.51 -30.91 Q 97.61 -29.44 97.07 -27 Q 96.54 -24.57 96.54 -20.95 Z M 94.08 -20.95 L 94.08 -20.95 Q 94.08 -24.57 94.67 -27.21 Q 95.26 -29.84 96.19 -31.58 Q 97.12 -33.32 98.29 -34.23 Q 99.46 -35.15 100.65 -35.38 L 100.65 -35.38 Q 98.94 -35.29 97.32 -34.48 Q 95.7 -33.67 94.44 -31.96 Q 93.18 -30.25 92.42 -27.54 Q 91.67 -24.83 91.67 -20.95 L 91.67 -20.95 Q 91.67 -17.07 92.42 -14.36 Q 93.18 -11.65 94.44 -9.94 Q 95.7 -8.23 97.32 -7.42 Q 98.94 -6.61 100.65 -6.52 L 100.65 -6.52 Q 99.46 -6.72 98.29 -7.65 Q 97.12 -8.58 96.19 -10.31 Q 95.26 -12.05 94.67 -14.69 Q 94.08 -17.33 94.08 -20.95 Z M 151.01 -40.24 L 151.01 -14.98 Q 151.01 -11.68 150.37 -9.2 Q 149.73 -6.72 148.6 -4.93 Q 147.47 -3.13 145.94 -1.97 Q 144.4 -0.81 142.59 -0.12 Q 140.78 0.58 138.77 0.85 Q 136.75 1.13 134.7 1.13 L 134.7 1.13 Q 132.73 1.13 130.77 0.88 Q 128.81 0.64 127.06 0 Q 125.31 -0.64 123.8 -1.77 Q 122.29 -2.9 121.19 -4.69 Q 120.09 -6.49 119.47 -9.01 Q 118.85 -11.53 118.85 -14.98 L 118.85 -14.98 L 118.85 -37.55 Q 118.85 -38.56 119.02 -39.32 Q 119.19 -40.07 119.69 -40.58 Q 120.18 -41.08 121.05 -41.35 Q 121.92 -41.61 123.31 -41.61 L 123.31 -41.61 L 136.23 -41.61 Q 137.91 -41.61 138.8 -41.11 Q 139.68 -40.62 140.04 -39.88 Q 140.4 -39.14 140.43 -38.32 Q 140.46 -37.49 140.46 -36.8 L 140.46 -36.8 L 140.46 -4.32 Q 143.07 -4.84 144.23 -6.72 Q 145.39 -8.61 145.39 -12.31 L 145.39 -12.31 L 145.39 -40.24 Q 145.39 -40.74 145.6 -41.17 Q 145.82 -41.61 146.57 -41.61 L 146.57 -41.61 L 149.59 -41.61 Q 149.85 -41.61 150.11 -41.58 Q 150.37 -41.55 150.57 -41.42 Q 150.78 -41.29 150.89 -41.01 Q 151.01 -40.74 151.01 -40.24 L 151.01 -40.24 Z M 138 -4 L 138 -37.32 Q 138 -37.96 137.91 -38.33 Q 137.82 -38.71 137.56 -38.9 Q 137.3 -39.09 136.87 -39.13 Q 136.43 -39.17 135.74 -39.17 L 135.74 -39.17 L 135.74 -4 L 138 -4 Z M 157.53 -4.03 L 157.53 -37.55 Q 157.53 -38.56 157.7 -39.32 Q 157.87 -40.07 158.37 -40.58 Q 158.86 -41.08 159.73 -41.35 Q 160.6 -41.61 161.99 -41.61 L 161.99 -41.61 L 175.92 -41.61 Q 178.1 -41.61 180.24 -41.3 Q 182.39 -41 184.33 -40.22 Q 186.27 -39.43 187.93 -38.06 Q 189.6 -36.68 190.82 -34.51 Q 192.03 -32.33 192.73 -29.29 Q 193.42 -26.25 193.42 -22.14 L 193.42 -22.14 Q 193.42 -17.3 192.69 -13.78 Q 191.95 -10.26 190.69 -7.79 Q 189.43 -5.33 187.7 -3.81 Q 185.98 -2.29 183.99 -1.43 Q 182.01 -0.58 179.88 -0.29 Q 177.75 0 175.63 0 L 175.63 0 L 161.99 0 Q 160.6 0 159.73 -0.26 Q 158.86 -0.52 158.37 -1.01 Q 157.87 -1.51 157.7 -2.26 Q 157.53 -3.01 157.53 -4.03 L 157.53 -4.03 Z M 189.34 -21.53 L 189.34 -21.53 Q 189.34 -25.12 188.76 -28.08 Q 188.18 -31.03 186.93 -33.12 Q 185.69 -35.2 183.76 -36.36 Q 181.83 -37.52 179.14 -37.55 L 179.14 -37.55 L 179.14 -4.03 Q 181.83 -4.06 183.78 -5.43 Q 185.72 -6.81 186.95 -9.18 Q 188.18 -11.56 188.76 -14.73 Q 189.34 -17.91 189.34 -21.53 Z M 176.68 -4 L 176.68 -37.61 L 174.42 -37.61 L 174.42 -4 L 176.68 -4 Z" stroke-linecap="round" />
</g>
</g>
</g>
<g transform="matrix(1.9211538461538462 0 0 1.9211538461538462 642.2317473030344 765.9676484150123)" id="tagline-95bf11e0-366c-4382-9864-b60ef9ad1571-logo"  >
<g style=""  paint-order="stroke"   >
		<g transform="matrix(1 0 0 1 0 0)" id="tagline-95bf11e0-366c-4382-9864-b60ef9ad1571-logo-path-0"  >
<path style="stroke: none; stroke-width: 0; stroke-dasharray: none; stroke-linecap: butt; stroke-dashoffset: 0; stroke-linejoin: miter; stroke-miterlimit: 4; fill: rgb(243,96,188); fill-rule: nonzero; opacity: 1;"  paint-order="stroke"  transform=" translate(-121.83, 33.425000000000004)" d="M 4.38 -6.62 L 4.38 -61.75 Q 4.38 -63.42 4.67 -64.66 Q 4.96 -65.9 5.77 -66.73 Q 6.58 -67.56 8 -67.99 Q 9.43 -68.42 11.72 -68.42 L 11.72 -68.42 L 34.64 -68.42 Q 38.21 -68.42 41.74 -67.92 Q 45.27 -67.42 48.46 -66.13 Q 51.65 -64.85 54.39 -62.58 Q 57.13 -60.32 59.13 -56.75 Q 61.13 -53.17 62.28 -48.17 Q 63.42 -43.17 63.42 -36.4 L 63.42 -36.4 Q 63.42 -28.45 62.2 -22.66 Q 60.99 -16.87 58.92 -12.82 Q 56.84 -8.77 54.01 -6.27 Q 51.17 -3.76 47.91 -2.36 Q 44.65 -0.95 41.14 -0.48 Q 37.64 0 34.16 0 L 34.16 0 L 11.72 0 Q 9.43 0 8 -0.43 Q 6.58 -0.86 5.77 -1.67 Q 4.96 -2.48 4.67 -3.72 Q 4.38 -4.96 4.38 -6.62 L 4.38 -6.62 Z M 56.7 -35.4 L 56.7 -35.4 Q 56.7 -41.31 55.75 -46.17 Q 54.79 -51.03 52.75 -54.46 Q 50.7 -57.89 47.53 -59.8 Q 44.36 -61.7 39.93 -61.75 L 39.93 -61.75 L 39.93 -6.62 Q 44.36 -6.67 47.55 -8.93 Q 50.74 -11.2 52.77 -15.1 Q 54.79 -19.01 55.75 -24.23 Q 56.7 -29.45 56.7 -35.4 Z M 35.88 -6.58 L 35.88 -61.85 L 32.16 -61.85 L 32.16 -6.58 L 35.88 -6.58 Z M 122.5 0.1 L 115.83 -12.96 Q 114.02 -11.96 112.14 -11.29 Q 110.25 -10.63 108.25 -10.2 L 108.25 -10.2 L 108.25 -6.62 Q 108.25 -5.1 107.92 -3.88 Q 107.59 -2.67 106.75 -1.81 Q 105.92 -0.95 104.56 -0.48 Q 103.2 0 101.15 0 L 101.15 0 L 80.05 0 Q 77.76 0 76.33 -0.43 Q 74.9 -0.86 74.09 -1.67 Q 73.28 -2.48 72.99 -3.72 Q 72.71 -4.96 72.71 -6.62 L 72.71 -6.62 L 72.71 -61.75 Q 72.71 -63.42 72.99 -64.66 Q 73.28 -65.9 74.09 -66.73 Q 74.9 -67.56 76.33 -67.99 Q 77.76 -68.42 80.05 -68.42 L 80.05 -68.42 L 101.3 -68.42 Q 104.73 -68.42 108.04 -67.85 Q 111.35 -67.28 114.33 -66.02 Q 117.31 -64.75 119.81 -62.66 Q 122.31 -60.56 124.14 -57.49 Q 125.98 -54.41 127 -50.32 Q 128.03 -46.22 128.03 -40.88 L 128.03 -40.88 Q 128.03 -36.31 127.45 -32.59 Q 126.88 -28.87 125.88 -25.87 Q 124.88 -22.87 123.48 -20.56 Q 122.07 -18.25 120.36 -16.49 L 120.36 -16.49 L 129.88 -3.91 Q 130.36 -3.24 130.36 -2.62 L 130.36 -2.62 Q 130.36 -1.91 129.86 -1.38 Q 129.36 -0.86 128.79 -0.52 L 128.79 -0.52 L 125.93 1.14 Q 125.6 1.33 125.24 1.45 Q 124.88 1.57 124.5 1.57 L 124.5 1.57 Q 123.98 1.57 123.45 1.24 Q 122.93 0.91 122.5 0.1 L 122.5 0.1 Z M 121.31 -40.02 L 121.31 -40.02 Q 121.31 -44.31 120.55 -47.93 Q 119.78 -51.55 118.21 -54.32 Q 116.64 -57.08 114.16 -58.89 Q 111.68 -60.7 108.25 -61.37 L 108.25 -61.37 L 108.25 -16.44 Q 111.68 -17.2 114.16 -19.23 Q 116.64 -21.25 118.21 -24.3 Q 119.78 -27.35 120.55 -31.33 Q 121.31 -35.31 121.31 -40.02 Z M 104.2 -7.05 L 104.2 -62.08 Q 103.25 -62.13 102.23 -62.16 Q 101.2 -62.18 100.49 -62.18 L 100.49 -62.18 L 100.49 -4 Q 101.63 -4 102.34 -4.07 Q 103.06 -4.15 103.49 -4.46 Q 103.92 -4.76 104.06 -5.36 Q 104.2 -5.96 104.2 -7.05 L 104.2 -7.05 Z M 137.65 -6.62 L 137.65 -61.75 Q 137.65 -63.42 137.94 -64.66 Q 138.22 -65.9 139.03 -66.73 Q 139.84 -67.56 141.27 -67.99 Q 142.7 -68.42 144.99 -68.42 L 144.99 -68.42 L 166.24 -68.42 Q 169 -68.42 170.45 -67.61 Q 171.91 -66.8 172.5 -65.59 Q 173.1 -64.37 173.15 -63.01 Q 173.19 -61.66 173.19 -60.51 L 173.19 -60.51 L 173.19 -7.72 Q 173.19 -6.62 173 -5.29 Q 172.81 -3.95 172.05 -2.79 Q 171.29 -1.62 169.72 -0.81 Q 168.14 0 165.38 0 L 165.38 0 L 144.99 0 Q 142.7 0 141.27 -0.43 Q 139.84 -0.86 139.03 -1.67 Q 138.22 -2.48 137.94 -3.72 Q 137.65 -4.96 137.65 -6.62 L 137.65 -6.62 Z M 169.14 -7.05 L 169.14 -61.37 Q 169.14 -62.42 169 -63.04 Q 168.86 -63.66 168.43 -63.97 Q 168 -64.28 167.29 -64.35 Q 166.57 -64.42 165.43 -64.42 L 165.43 -64.42 L 165.43 -4 Q 166.57 -4 167.29 -4.07 Q 168 -4.15 168.43 -4.46 Q 168.86 -4.76 169 -5.36 Q 169.14 -5.96 169.14 -7.05 L 169.14 -7.05 Z M 183.96 -6.62 L 183.96 -61.75 Q 183.96 -63.42 184.25 -64.66 Q 184.53 -65.9 185.34 -66.73 Q 186.15 -67.56 187.58 -67.99 Q 189.01 -68.42 191.3 -68.42 L 191.3 -68.42 L 212.55 -68.42 Q 215.84 -68.42 219.08 -68.02 Q 222.32 -67.61 225.29 -66.66 Q 228.27 -65.71 230.82 -64.18 Q 233.37 -62.66 235.25 -60.39 Q 237.14 -58.13 238.21 -55.1 Q 239.28 -52.08 239.28 -48.12 L 239.28 -48.12 Q 239.28 -42.26 237.68 -38.24 Q 236.09 -34.21 233.37 -31.59 Q 230.66 -28.97 227.06 -27.59 Q 223.46 -26.21 219.51 -25.59 L 219.51 -25.59 L 219.51 -7.72 Q 219.51 -6.62 219.32 -5.29 Q 219.12 -3.95 218.36 -2.79 Q 217.6 -1.62 216.03 -0.81 Q 214.46 0 211.69 0 L 211.69 0 L 191.3 0 Q 189.01 0 187.58 -0.43 Q 186.15 -0.86 185.34 -1.67 Q 184.53 -2.48 184.25 -3.72 Q 183.96 -4.96 183.96 -6.62 L 183.96 -6.62 Z M 232.56 -47.41 L 232.56 -47.41 Q 232.56 -50.27 231.8 -52.67 Q 231.04 -55.08 229.46 -56.89 Q 227.89 -58.7 225.41 -59.89 Q 222.94 -61.08 219.51 -61.51 L 219.51 -61.51 L 219.51 -31.92 Q 222.94 -32.45 225.41 -33.83 Q 227.89 -35.21 229.46 -37.26 Q 231.04 -39.31 231.8 -41.91 Q 232.56 -44.5 232.56 -47.41 Z M 215.46 -7.05 L 215.46 -62.08 Q 214.5 -62.13 213.48 -62.16 Q 212.45 -62.18 211.74 -62.18 L 211.74 -62.18 L 211.74 -4 Q 212.88 -4 213.6 -4.07 Q 214.31 -4.15 214.74 -4.46 Q 215.17 -4.76 215.31 -5.36 Q 215.46 -5.96 215.46 -7.05 L 215.46 -7.05 Z" stroke-linecap="round" />
</g>
</g>
</g>
<g transform="matrix(1.5727446339568 1.103316100196044 -1.1033161001960443 1.5727446339568 296.89514294780713 812.1280380326455)" id="tagline-0765a92b-9bf7-4f92-8ce9-001f7c5c6ab3-logo-0"  >
<g style=""  paint-order="stroke"   >
		<g transform="matrix(1 0 0 1 0 0)" id="e8a01db5-b706-49fc-ba8c-c77d42945aa0-path-0"  >
<path style="stroke: none; stroke-width: 0; stroke-dasharray: none; stroke-linecap: butt; stroke-dashoffset: 0; stroke-linejoin: miter; stroke-miterlimit: 4; fill: rgb(255,255,255); fill-rule: nonzero; opacity: 1;"  paint-order="stroke"  transform=" translate(-7.074964828933342, 9.45)" d="M 3.21 -18.58 C 3.16 -18.79 3.02 -18.9 2.81 -18.9 L 0.59 -18.9 C 0.38 -18.9 0.3 -18.79 0.35 -18.58 L 5.29 -0.32 C 5.35 -0.11 5.48 0 5.7 0 L 8.45 0 C 8.67 0 8.8 -0.11 8.86 -0.32 L 13.8 -18.58 C 13.85 -18.79 13.77 -18.9 13.55 -18.9 L 11.34 -18.9 C 11.12 -18.9 10.99 -18.79 10.94 -18.58 L 7.07 -4.32 Z" stroke-linecap="round" />
</g>
</g>
</g>
<g transform="matrix(1.6912012167742891 0.9114112929807707 -0.9114112929807707 1.6912012167742891 354.1178237141383 852.9428261390603)" id="tagline-0765a92b-9bf7-4f92-8ce9-001f7c5c6ab3-logo-1"  >
<g style=""  paint-order="stroke"   >
		<g transform="matrix(1 0 0 1 0 0)" id="fc171723-b39b-4c5a-9db0-ea165e1a7963-path-0"  >
<path style="stroke: none; stroke-width: 0; stroke-dasharray: none; stroke-linecap: butt; stroke-dashoffset: 0; stroke-linejoin: miter; stroke-miterlimit: 4; fill: rgb(255,255,255); fill-rule: nonzero; opacity: 1;"  paint-order="stroke"  transform=" translate(-5.994999999999999, 7.02)" d="M 10.72 -0.68 C 10.91 -0.78 11.02 -0.86 11.02 -1.08 L 11.02 -10.07 C 11.02 -13.07 9.64 -14.26 6.51 -14.26 C 3.46 -14.26 1.81 -12.82 1.43 -10.07 C 1.4 -9.83 1.48 -9.75 1.73 -9.75 L 3.89 -9.75 C 4.13 -9.75 4.21 -9.83 4.24 -10.07 C 4.35 -11.29 5.08 -11.93 6.26 -11.93 C 7.45 -11.93 8.21 -11.61 8.21 -9.77 L 8.21 -7.94 L 5.91 -7.94 C 3.02 -7.94 0.97 -6.26 0.97 -3.62 C 0.97 -1.22 2.62 0.22 6.53 0.22 C 8.21 0.22 9.72 -0.24 10.72 -0.68 Z M 6.62 -2.11 C 4.75 -2.11 3.78 -2.78 3.78 -3.89 C 3.78 -4.97 4.56 -5.72 6.08 -5.72 L 8.21 -5.72 L 8.21 -2.38 C 7.8 -2.21 7.29 -2.11 6.62 -2.11 Z" stroke-linecap="round" />
</g>
</g>
</g>
<g transform="matrix(1.7842533804034704 0.7122302823599297 -0.7122302823599297 1.7842533804034704 415.4209059904374 886.5006087467245)" id="tagline-0765a92b-9bf7-4f92-8ce9-001f7c5c6ab3-logo-2"  >
<g style=""  paint-order="stroke"   >
		<g transform="matrix(1 0 0 1 0 -1.77636e-15)" id="26b0db66-d4c5-4aef-ab28-ecdfaa0f14e5-path-0"  >
<path style="stroke: none; stroke-width: 0; stroke-dasharray: none; stroke-linecap: butt; stroke-dashoffset: 0; stroke-linejoin: miter; stroke-miterlimit: 4; fill: rgb(255,255,255); fill-rule: nonzero; opacity: 1;"  paint-order="stroke"  transform=" translate(-6.385, 4.699999999999999)" d="M 1.3 4.54 C 1.3 4.78 1.38 4.86 1.62 4.86 L 3.78 4.86 C 4.02 4.86 4.1 4.78 4.1 4.54 L 4.1 0.05 C 4.67 0.16 5.26 0.22 5.89 0.22 C 9.23 0.22 11.47 -2.43 11.47 -7.32 L 11.47 -8.42 C 11.47 -11.96 9.48 -14.26 6.75 -14.26 C 5.45 -14.26 4.59 -13.82 3.56 -13.01 L 3.56 -13.72 C 3.56 -13.96 3.48 -14.04 3.24 -14.04 L 1.62 -14.04 C 1.38 -14.04 1.3 -13.96 1.3 -13.72 Z M 6.21 -11.93 C 7.86 -11.93 8.67 -10.5 8.67 -8.21 L 8.67 -7.45 C 8.67 -3.89 7.45 -2.11 5.83 -2.11 C 5.1 -2.11 4.54 -2.21 4.1 -2.4 L 4.1 -11.12 C 4.72 -11.64 5.1 -11.93 6.21 -11.93 Z" stroke-linecap="round" />
</g>
</g>
</g>
<g transform="matrix(1.8539979030369802 0.5035115451766693 -0.5035115451766695 1.853997903036981 482.1127020275643 904.0676036604129)" id="tagline-0765a92b-9bf7-4f92-8ce9-001f7c5c6ab3-logo-3"  >
<g style=""  paint-order="stroke"   >
		<g transform="matrix(1 0 0 1 0 0)" id="1c08ae34-79ff-4c6d-bb43-cca7f5a440b0-path-0"  >
<path style="stroke: none; stroke-width: 0; stroke-dasharray: none; stroke-linecap: butt; stroke-dashoffset: 0; stroke-linejoin: miter; stroke-miterlimit: 4; fill: rgb(255,255,255); fill-rule: nonzero; opacity: 1;"  paint-order="stroke"  transform=" translate(-6.158564064605509, 7.02)" d="M 11.1 -8.86 C 11.1 -12.26 9.21 -14.26 6.24 -14.26 C 3.27 -14.26 0.97 -12.02 0.97 -8.4 L 0.97 -6.16 C 0.97 -1.92 3.21 0.22 6.59 0.22 C 8.69 0.22 10.85 -0.81 11.34 -3.81 C 11.37 -4.05 11.31 -4.13 11.07 -4.13 L 8.91 -4.13 C 8.67 -4.13 8.59 -4.05 8.53 -3.81 C 8.34 -2.67 7.75 -2.11 6.4 -2.11 C 4.54 -2.11 3.78 -3.78 3.78 -6.29 L 3.78 -6.62 L 10.77 -6.62 C 11.02 -6.62 11.1 -6.7 11.1 -6.94 Z M 6.24 -11.93 C 7.96 -11.93 8.29 -10.72 8.29 -8.88 L 3.81 -8.88 C 3.92 -10.91 4.72 -11.93 6.24 -11.93 Z" stroke-linecap="round" />
</g>
</g>
</g>
<g transform="matrix(0.9864882008917691 0.16383232129625874 -0.16383232129625874 0.9864882008917691 274.4782787101574 478.05950773137727)" id="tagline-0765a92b-9bf7-4f92-8ce9-001f7c5c6ab3-logo-4"  >
<g style=""  paint-order="stroke"   >
		<g transform="matrix(1 0 0 1 0 0)" id="f8a50deb-1888-4457-96e9-cc1797b30a8c-path-0"  >
<path style="stroke: none; stroke-width: 0; stroke-dasharray: none; stroke-linecap: butt; stroke-dashoffset: 0; stroke-linejoin: miter; stroke-miterlimit: 4; fill: rgb(255,255,255); fill-rule: nonzero; opacity: 1;"  paint-order="stroke"  transform=" translate(0, 0)" d="" stroke-linecap="round" />
</g>
</g>
</g>
<g transform="matrix(1.9181304219867945 0.10773943029586587 -0.10773943029586587 1.9181304219867945 606.3588866147485 919.509044058432)" id="tagline-0765a92b-9bf7-4f92-8ce9-001f7c5c6ab3-logo-5"  >
<g style=""  paint-order="stroke"   >
		<g transform="matrix(1 0 0 1 0 0)" id="ecea64ed-d9c5-418c-9c95-f8cf13dd5eca-path-0"  >
<path style="stroke: none; stroke-width: 0; stroke-dasharray: none; stroke-linecap: butt; stroke-dashoffset: 0; stroke-linejoin: miter; stroke-miterlimit: 4; fill: rgb(255,255,255); fill-rule: nonzero; opacity: 1;"  paint-order="stroke"  transform=" translate(-8.495, 9.45)" d="M 1.3 -0.32 C 1.3 -0.08 1.38 0 1.62 0 L 3.46 0 C 3.7 0 3.78 -0.08 3.78 -0.32 L 3.78 -13.28 L 7.37 -2.46 C 7.45 -2.24 7.56 -2.16 7.8 -2.16 L 9.15 -2.16 C 9.4 -2.16 9.5 -2.24 9.58 -2.46 L 13.2 -13.37 L 13.2 -0.32 C 13.2 -0.08 13.28 0 13.53 0 L 15.36 0 C 15.61 0 15.69 -0.08 15.69 -0.32 L 15.69 -18.58 C 15.69 -18.82 15.61 -18.9 15.36 -18.9 L 13.1 -18.9 C 12.85 -18.9 12.74 -18.82 12.66 -18.6 L 8.61 -6.4 L 4.56 -18.6 C 4.48 -18.82 4.37 -18.9 4.13 -18.9 L 1.62 -18.9 C 1.38 -18.9 1.3 -18.82 1.3 -18.58 Z" stroke-linecap="round" />
</g>
</g>
</g>
<g transform="matrix(1.916955162095657 -0.1269448979145204 0.1269448979145204 1.9169551620956573 679.3553402584687 923.8170113568694)" id="tagline-0765a92b-9bf7-4f92-8ce9-001f7c5c6ab3-logo-6"  >
<g style=""  paint-order="stroke"   >
		<g transform="matrix(1 0 0 1 0 0)" id="5c9c952b-96d0-49aa-aa1e-5b945ab9a693-path-0"  >
<path style="stroke: none; stroke-width: 0; stroke-dasharray: none; stroke-linecap: butt; stroke-dashoffset: 0; stroke-linejoin: miter; stroke-miterlimit: 4; fill: rgb(255,255,255); fill-rule: nonzero; opacity: 1;"  paint-order="stroke"  transform=" translate(-5.994999999999999, 7.02)" d="M 10.72 -0.68 C 10.91 -0.78 11.02 -0.86 11.02 -1.08 L 11.02 -10.07 C 11.02 -13.07 9.64 -14.26 6.51 -14.26 C 3.46 -14.26 1.81 -12.82 1.43 -10.07 C 1.4 -9.83 1.48 -9.75 1.73 -9.75 L 3.89 -9.75 C 4.13 -9.75 4.21 -9.83 4.24 -10.07 C 4.35 -11.29 5.08 -11.93 6.26 -11.93 C 7.45 -11.93 8.21 -11.61 8.21 -9.77 L 8.21 -7.94 L 5.91 -7.94 C 3.02 -7.94 0.97 -6.26 0.97 -3.62 C 0.97 -1.22 2.62 0.22 6.53 0.22 C 8.21 0.22 9.72 -0.24 10.72 -0.68 Z M 6.62 -2.11 C 4.75 -2.11 3.78 -2.78 3.78 -3.89 C 3.78 -4.97 4.56 -5.72 6.08 -5.72 L 8.21 -5.72 L 8.21 -2.38 C 7.8 -2.21 7.29 -2.11 6.62 -2.11 Z" stroke-linecap="round" />
</g>
</g>
</g>
<g transform="matrix(1.8899400918298805 -0.3449036820414929 0.34490368204149296 1.8899400918298808 747.8846982242873 915.3428051023133)" id="tagline-0765a92b-9bf7-4f92-8ce9-001f7c5c6ab3-logo-7"  >
<g style=""  paint-order="stroke"   >
		<g transform="matrix(1 0 0 1 0 0)" id="f7e3d6fb-3cb4-4676-b1d4-3b95179bc668-path-0"  >
<path style="stroke: none; stroke-width: 0; stroke-dasharray: none; stroke-linecap: butt; stroke-dashoffset: 0; stroke-linejoin: miter; stroke-miterlimit: 4; fill: rgb(255,255,255); fill-rule: nonzero; opacity: 1;"  paint-order="stroke"  transform=" translate(-6.158564064605509, 7.02)" d="M 11.1 -10.1 C 10.96 -12.72 9.26 -14.26 6.4 -14.26 C 3.43 -14.26 0.97 -11.99 0.97 -7.51 L 0.97 -6.88 C 0.97 -2.29 3.21 0.22 6.59 0.22 C 8.69 0.22 10.85 -0.81 11.34 -3.81 C 11.37 -4.05 11.31 -4.13 11.07 -4.13 L 8.91 -4.13 C 8.67 -4.13 8.59 -4.05 8.53 -3.81 C 8.34 -2.67 7.75 -2.11 6.4 -2.11 C 4.54 -2.11 3.78 -4.16 3.78 -7.02 L 3.78 -7.78 C 3.78 -10.37 4.59 -11.93 6.24 -11.93 C 7.26 -11.93 8.05 -11.21 8.29 -10.1 C 8.34 -9.86 8.42 -9.77 8.67 -9.77 L 10.77 -9.77 C 11.02 -9.77 11.1 -9.86 11.1 -10.1 Z" stroke-linecap="round" />
</g>
</g>
</g>
<g transform="matrix(1.8382252097121003 -0.5583548862243626 0.5583548862243626 1.8382252097121003 813.4178097202373 894.6434488556333)" id="tagline-0765a92b-9bf7-4f92-8ce9-001f7c5c6ab3-logo-8"  >
<g style=""  paint-order="stroke"   >
		<g transform="matrix(1 0 0 1 0 0)" id="a3dd1a2c-e56d-42b7-b0b4-1ca39971f1d9-path-0"  >
<path style="stroke: none; stroke-width: 0; stroke-dasharray: none; stroke-linecap: butt; stroke-dashoffset: 0; stroke-linejoin: miter; stroke-miterlimit: 4; fill: rgb(255,255,255); fill-rule: nonzero; opacity: 1;"  paint-order="stroke"  transform=" translate(-6.145, 9.465)" d="M 8.18 -0.32 C 8.18 -0.08 8.26 0 8.51 0 L 10.66 0 C 10.91 0 10.99 -0.08 10.99 -0.32 L 10.99 -9.75 C 10.99 -12.85 9.02 -14.26 6.05 -14.26 C 5.4 -14.26 4.75 -14.2 4.1 -14.09 L 4.1 -18.6 C 4.1 -18.85 4.02 -18.93 3.78 -18.93 L 1.62 -18.93 C 1.38 -18.93 1.3 -18.85 1.3 -18.6 L 1.3 -0.32 C 1.3 -0.08 1.38 0 1.62 0 L 3.78 0 C 4.02 0 4.1 -0.08 4.1 -0.32 L 4.1 -11.66 C 4.64 -11.85 5.18 -11.93 5.89 -11.93 C 7.51 -11.93 8.18 -11.5 8.18 -9.64 Z" stroke-linecap="round" />
</g>
</g>
</g>
<g transform="matrix(1.771242581905787 -0.743997188593772 0.7439971885937721 1.771242581905787 871.1403258608573 873.8471376204825)" id="tagline-0765a92b-9bf7-4f92-8ce9-001f7c5c6ab3-logo-9"  >
<g style=""  paint-order="stroke"   >
		<g transform="matrix(1 0 0 1 0 0)" id="f117c083-a910-4e0e-9f8e-68ddfa47552e-path-0"  >
<path style="stroke: none; stroke-width: 0; stroke-dasharray: none; stroke-linecap: butt; stroke-dashoffset: 0; stroke-linejoin: miter; stroke-miterlimit: 4; fill: rgb(255,255,255); fill-rule: nonzero; opacity: 1;"  paint-order="stroke"  transform=" translate(-2.74, 9.45)" d="M 1.38 -0.32 C 1.38 -0.08 1.46 0 1.7 0 L 3.86 0 C 4.1 0 4.18 -0.08 4.18 -0.32 L 4.18 -13.72 C 4.18 -13.96 4.1 -14.04 3.86 -14.04 L 1.7 -14.04 C 1.46 -14.04 1.38 -13.96 1.38 -13.72 Z M 1.3 -15.98 C 1.3 -15.74 1.38 -15.66 1.62 -15.66 L 3.81 -15.66 C 4.05 -15.66 4.13 -15.74 4.13 -15.98 L 4.13 -18.58 C 4.13 -18.82 4.05 -18.9 3.81 -18.9 L 1.62 -18.9 C 1.38 -18.9 1.3 -18.82 1.3 -18.58 Z" stroke-linecap="round" />
</g>
</g>
</g>
<g transform="matrix(1.6855678460342425 -0.9217880108827629 0.9217880108827629 1.6855678460342425 928.5282846967866 851.1325888839741)" id="tagline-0765a92b-9bf7-4f92-8ce9-001f7c5c6ab3-logo-10"  >
<g style=""  paint-order="stroke"   >
		<g transform="matrix(1 0 0 1 0 0)" id="c014be93-8761-4e79-bc5d-1d14d3b43b04-path-0"  >
<path style="stroke: none; stroke-width: 0; stroke-dasharray: none; stroke-linecap: butt; stroke-dashoffset: 0; stroke-linejoin: miter; stroke-miterlimit: 4; fill: rgb(255,255,255); fill-rule: nonzero; opacity: 1;"  paint-order="stroke"  transform=" translate(-6.145, 7.13)" d="M 8.18 -0.32 C 8.18 -0.08 8.26 0 8.51 0 L 10.66 0 C 10.91 0 10.99 -0.08 10.99 -0.32 L 10.99 -9.75 C 10.99 -12.85 9.02 -14.26 6.05 -14.26 C 4.59 -14.26 3.19 -14.01 1.59 -13.37 C 1.38 -13.28 1.3 -13.18 1.3 -12.96 L 1.3 -0.32 C 1.3 -0.08 1.38 0 1.62 0 L 3.78 0 C 4.02 0 4.1 -0.08 4.1 -0.32 L 4.1 -11.66 C 4.64 -11.85 5.18 -11.93 5.89 -11.93 C 7.51 -11.93 8.18 -11.5 8.18 -9.64 Z" stroke-linecap="round" />
</g>
</g>
</g>
<g transform="matrix(1.5693467643293255 -1.1081438687646983 1.1081438687646983 1.5693467643293255 986.9766704881852 814.9313569933465)" id="tagline-0765a92b-9bf7-4f92-8ce9-001f7c5c6ab3-logo-11"  >
<g style=""  paint-order="stroke"   >
		<g transform="matrix(1 0 0 1 0 0)" id="217b1481-fa77-4578-b8fd-ea2501732edc-path-0"  >
<path style="stroke: none; stroke-width: 0; stroke-dasharray: none; stroke-linecap: butt; stroke-dashoffset: 0; stroke-linejoin: miter; stroke-miterlimit: 4; fill: rgb(255,255,255); fill-rule: nonzero; opacity: 1;"  paint-order="stroke"  transform=" translate(-6.158564064605509, 7.02)" d="M 11.1 -8.86 C 11.1 -12.26 9.21 -14.26 6.24 -14.26 C 3.27 -14.26 0.97 -12.02 0.97 -8.4 L 0.97 -6.16 C 0.97 -1.92 3.21 0.22 6.59 0.22 C 8.69 0.22 10.85 -0.81 11.34 -3.81 C 11.37 -4.05 11.31 -4.13 11.07 -4.13 L 8.91 -4.13 C 8.67 -4.13 8.59 -4.05 8.53 -3.81 C 8.34 -2.67 7.75 -2.11 6.4 -2.11 C 4.54 -2.11 3.78 -3.78 3.78 -6.29 L 3.78 -6.62 L 10.77 -6.62 C 11.02 -6.62 11.1 -6.7 11.1 -6.94 Z M 6.24 -11.93 C 7.96 -11.93 8.29 -10.72 8.29 -8.88 L 3.81 -8.88 C 3.92 -10.91 4.72 -11.93 6.24 -11.93 Z" stroke-linecap="round" />
</g>
</g>
</g>
<g transform="matrix(1.3362410498095074 0 0 1.3362410498095074 639.9341446049996 387.0972835770778)" id="shape-8af7d342-de8e-4c69-a642-f75827669b22"  >
<g style=""  paint-order="stroke"   >
		<g transform="matrix(1 0 0 1 10.464260358260319 6.590000000000003)" id="Path-2"  >
<path style="stroke: none; stroke-width: 1; stroke-dasharray: none; stroke-linecap: butt; stroke-dashoffset: 0; stroke-linejoin: miter; stroke-miterlimit: 4; fill: rgb(254,102,196); fill-rule: nonzero; opacity: 1;"  paint-order="stroke"  transform=" translate(-93.16489036089322, -131.59)" d="M 83 250 C 168.73000000000002 250 185.87 166.18 142.29 113.84 C 108.32 73.03 93.01 33.68 86.78 13.18 C 85.95 20.78 86.03 29.009999999999998 86.99 36.53 C 89.67999999999999 57.650000000000006 95.97 80.16 106.16999999999999 98.41 C 124.13 130.54 150.67999999999998 175.8 125.01999999999998 208.28 C 112.13999999999999 224.58 95.49999999999999 228.96 75.21999999999998 226.1 C 55.84999999999998 223.38 33.98999999999999 201.85999999999999 35.609999999999985 188.22 C 33.29999999999998 198.55 19.249999999999986 217.25 21.099999999999987 227.59 C 34.74 241.23 55.28 250 83 250 z" stroke-linecap="round" />
</g>
		<g transform="matrix(1 0 0 1 -0.00307682261222908 0)" id="Path-1"  >
<path style="stroke: none; stroke-width: 1; stroke-dasharray: none; stroke-linecap: butt; stroke-dashoffset: 0; stroke-linejoin: miter; stroke-miterlimit: 4; fill: rgb(33,141,239); fill-rule: nonzero; opacity: 1;"  paint-order="stroke"  transform=" translate(-82.69755318002068, -125)" d="M 83 250 C 148.28 250 173.78 201.4 163 155.1 C 161.65 169.23 157.76 182.99 150.82 195.20999999999998 C 132.60999999999999 227.23 88.97999999999999 245.71999999999997 56.66999999999999 222.39999999999998 C 40.66999999999999 210.84999999999997 33.51999999999999 190.53999999999996 34.079999999999984 171.32999999999998 C 34.73999999999998 148.44 48.01999999999998 129.54999999999998 56.95999999999998 109.25999999999999 C 63.79999999999998 93.74 71.21999999999998 78.80999999999999 75.41999999999999 62.26999999999999 C 78.04999999999998 51.94999999999999 79.91999999999999 41.44999999999999 81.15999999999998 30.87999999999999 C 81.77999999999999 25.58999999999999 82.23999999999998 20.28999999999999 82.54999999999998 14.979999999999988 C 82.82 10.41 81.86 4.37 83.04 0 C 75.57000000000001 27.73 64.58000000000001 54.67 48.86000000000001 78.71 C 39.57000000000001 92.91 28.690000000000005 106.02 19.430000000000007 120.25 C 10.17 134.46 2.44 150.14 0.47 167 C -2.05 188.47 5.8 210.68 20.47 226.43 C 36.54 243.68 60 250 83 250 z" stroke-linecap="round" />
</g>
</g>
</g>
</svg>